<svg width="74" height="61" viewBox="0 0 74 61" fill="none" xmlns="http://www.w3.org/2000/svg">
<path fill-rule="evenodd" clip-rule="evenodd" d="M27.5 13.5C27.5 8.25329 31.7533 4 37 4C42.2467 4 46.5 8.25329 46.5 13.5C46.5 17.511 44.0143 20.9414 40.4992 22.3348V20.4985H33.4992V31.0005L2 52V57V59H4H70H72V57V52L40.5 31L40.4992 30.9992V24.4579C45.1395 22.9774 48.5 18.6312 48.5 13.5C48.5 7.14873 43.3513 2 37 2C30.6487 2 25.5 7.14873 25.5 13.5H27.5ZM33.4992 34.4985V33.4042L4 53.0704V57H70V53.0704L40.4992 33.4032V34.4985H33.4992Z" fill="#007AFF"/>
<path d="M27.5 13.5V15C28.3284 15 29 14.3284 29 13.5H27.5ZM40.4992 22.3348H38.9992C38.9992 22.8317 39.2453 23.2964 39.6564 23.5756C40.0674 23.8548 40.5901 23.9123 41.052 23.7292L40.4992 22.3348ZM40.4992 20.4985H41.9992C41.9992 19.6701 41.3277 18.9985 40.4992 18.9985V20.4985ZM33.4992 20.4985V18.9985C32.6708 18.9985 31.9992 19.6701 31.9992 20.4985H33.4992ZM33.4992 31.0005L34.3313 32.2486C34.7486 31.9704 34.9992 31.502 34.9992 31.0005H33.4992ZM2 52L1.16795 50.7519C0.750652 51.0301 0.5 51.4985 0.5 52H2ZM2 59H0.5C0.5 59.8284 1.17157 60.5 2 60.5L2 59ZM72 59V60.5C72.8284 60.5 73.5 59.8284 73.5 59H72ZM72 52H73.5C73.5 51.4985 73.2493 51.0301 72.8321 50.7519L72 52ZM40.5 31L39.4393 32.0607C39.5092 32.1305 39.5858 32.1933 39.6679 32.2481L40.5 31ZM40.4992 30.9992H38.9992C38.9992 31.3971 39.1573 31.7786 39.4386 32.0599L40.4992 30.9992ZM40.4992 24.4579L40.0433 23.0289C39.4214 23.2273 38.9992 23.8052 38.9992 24.4579H40.4992ZM25.5 13.5H24C24 14.3284 24.6716 15 25.5 15V13.5ZM33.4992 33.4042H34.9992C34.9992 32.851 34.6948 32.3427 34.207 32.0817C33.7193 31.8207 33.1275 31.8493 32.6672 32.1561L33.4992 33.4042ZM33.4992 34.4985H31.9992C31.9992 35.3269 32.6708 35.9985 33.4992 35.9985V34.4985ZM4 53.0704L3.16795 51.8223C2.75065 52.1005 2.5 52.5688 2.5 53.0704H4ZM4 57H2.5C2.5 57.8284 3.17157 58.5 4 58.5V57ZM70 57V58.5C70.8284 58.5 71.5 57.8284 71.5 57H70ZM70 53.0704H71.5C71.5 52.5688 71.2493 52.1005 70.8321 51.8223L70 53.0704ZM40.4992 33.4032L41.3313 32.1551C40.871 31.8483 40.2792 31.8197 39.7915 32.0807C39.3037 32.3417 38.9992 32.85 38.9992 33.4032H40.4992ZM40.4992 34.4985V35.9985C41.3277 35.9985 41.9992 35.3269 41.9992 34.4985H40.4992ZM37 2.5C30.9249 2.5 26 7.42487 26 13.5H29C29 9.08172 32.5817 5.5 37 5.5V2.5ZM48 13.5C48 7.42487 43.0751 2.5 37 2.5V5.5C41.4183 5.5 45 9.08172 45 13.5H48ZM41.052 23.7292C45.1194 22.1169 48 18.1467 48 13.5H45C45 16.8753 42.9091 19.7659 39.9465 20.9404L41.052 23.7292ZM41.9992 22.3348V20.4985H38.9992V22.3348H41.9992ZM40.4992 18.9985H33.4992V21.9985H40.4992V18.9985ZM31.9992 20.4985V31.0005H34.9992V20.4985H31.9992ZM32.6672 29.7524L1.16795 50.7519L2.83205 53.2481L34.3313 32.2486L32.6672 29.7524ZM0.5 52V57H3.5V52H0.5ZM0.5 57V59H3.5V57H0.5ZM2 60.5H4V57.5H2V60.5ZM4 60.5H70V57.5H4V60.5ZM70 60.5H72V57.5H70V60.5ZM73.5 59V57H70.5V59H73.5ZM73.5 57V52H70.5V57H73.5ZM72.8321 50.7519L41.3321 29.7519L39.6679 32.2481L71.1679 53.2481L72.8321 50.7519ZM41.5607 29.9393L41.5599 29.9386L39.4386 32.0599L39.4393 32.0607L41.5607 29.9393ZM41.9992 30.9992V24.4579H38.9992V30.9992H41.9992ZM47 13.5C47 17.9596 44.0797 21.741 40.0433 23.0289L40.9552 25.887C46.1992 24.2138 50 19.3027 50 13.5H47ZM37 3.5C42.5228 3.5 47 7.97715 47 13.5H50C50 6.3203 44.1797 0.5 37 0.5V3.5ZM27 13.5C27 7.97715 31.4772 3.5 37 3.5V0.5C29.8203 0.5 24 6.3203 24 13.5H27ZM27.5 12H25.5V15H27.5V12ZM31.9992 33.4042V34.4985H34.9992V33.4042H31.9992ZM4.83205 54.3184L34.3313 34.6523L32.6672 32.1561L3.16795 51.8223L4.83205 54.3184ZM5.5 57V53.0704H2.5V57H5.5ZM70 55.5H4V58.5H70V55.5ZM68.5 53.0704V57H71.5V53.0704H68.5ZM39.6672 34.6513L69.1679 54.3184L70.8321 51.8223L41.3313 32.1551L39.6672 34.6513ZM41.9992 34.4985V33.4032H38.9992V34.4985H41.9992ZM33.4992 35.9985H40.4992V32.9985H33.4992V35.9985Z" fill="#007AFF"/>
</svg>
