<svg width="65" height="84" viewBox="0 0 65 84" fill="none" xmlns="http://www.w3.org/2000/svg">
<path fill-rule="evenodd" clip-rule="evenodd" d="M21.6685 21.6686C26.3857 21.6686 30.3987 18.6537 31.8857 14.4457H39.7244V21.6667H46.9461V14.4457H50.5567V7.22347H31.8852C30.3978 3.0162 26.3852 0.00195312 21.6685 0.00195312C15.6855 0.00195312 10.8352 4.8522 10.8352 10.8353C10.8352 16.8184 15.6855 21.6686 21.6685 21.6686ZM25.278 10.8343C25.278 12.8285 23.6614 14.4452 21.6672 14.4452C19.6729 14.4452 18.0563 12.8285 18.0563 10.8343C18.0563 8.8401 19.6729 7.22347 21.6672 7.22347C23.6614 7.22347 25.278 8.8401 25.278 10.8343ZM0 54.1721V79.4499C0 81.436 1.625 83.061 3.61111 83.061H7.22222C9.20833 83.061 10.8333 81.436 10.8333 79.4499V75.8388H54.1667V79.4499C54.1667 81.436 55.7917 83.061 57.7778 83.061H61.3889C63.375 83.061 65 81.436 65 79.4499V54.1721L59.2744 34.1325C58.3885 31.032 55.5546 28.8944 52.33 28.8944H43.3333H21.6667H12.67C9.44537 28.8944 6.61147 31.032 5.72561 34.1325L0 54.1721ZM7.22222 63.1999C7.22222 66.1972 9.64167 68.6166 12.6389 68.6166C15.6361 68.6166 18.0556 66.1972 18.0556 63.1999C18.0556 60.2027 15.6361 57.7833 12.6389 57.7833C9.64167 57.7833 7.22222 60.2027 7.22222 63.1999ZM46.9444 63.1999C46.9444 66.1972 49.3639 68.6166 52.3611 68.6166C55.3583 68.6166 57.7778 66.1972 57.7778 63.1999C57.7778 60.2027 55.3583 57.7833 52.3611 57.7833C49.3639 57.7833 46.9444 60.2027 46.9444 63.1999ZM9.57472 46.9499H55.4253L52.33 36.1166H12.67L9.57472 46.9499Z" fill="#007AFF"/>
</svg>
