<svg width="65" height="65" viewBox="0 0 65 65" fill="none" xmlns="http://www.w3.org/2000/svg">
<path fill-rule="evenodd" clip-rule="evenodd" d="M0 0H32.5V19.4998H64.9995V64.9998H32.5V65H13.0004V19.5016H26.0004V6.50162H13.0004H6.50036V19.5016V65H0V0ZM58.5 25.999H45.5V64.999H58.5V25.999ZM32.5006 25.999H39.0001V32.4985H32.5006V25.999ZM25.9993 25.999H19.4998V32.4985H25.9993V25.999ZM32.5006 38.9997H39.0001V45.4992H32.5006V38.9997ZM25.9993 38.9997H19.4998V45.4992H25.9993V38.9997ZM32.5006 52.0004H39.0001V58.4999H32.5006V52.0004ZM25.9993 52.0004H19.4998V58.4999H25.9993V52.0004Z" fill="#007AFF"/>
</svg>
