<svg width="42" height="42" viewBox="0 0 42 42" fill="none" xmlns="http://www.w3.org/2000/svg">
<path d="M7.78868 24.3394L20.3153 36.1068C20.6398 36.4116 20.802 36.564 21 36.564C21.198 36.564 21.3602 36.4116 21.6847 36.1068L34.2113 24.3394L34.2117 24.339C34.2773 24.2774 34.3101 24.2466 34.3383 24.2196C37.6508 21.0532 38.0554 15.9035 35.2779 12.2588C35.2542 12.2277 35.2265 12.192 35.1712 12.1206L34.6298 11.4229C31.1855 6.98352 24.2719 7.72802 21.8517 12.7989C21.5098 13.5152 20.4902 13.5152 20.1483 12.7989C17.7281 7.72802 10.8145 6.98352 7.3702 11.4229L6.82883 12.1206C6.77346 12.192 6.74578 12.2277 6.72208 12.2588C3.94465 15.9035 4.34918 21.0532 7.66167 24.2196C7.6899 24.2466 7.72278 24.2775 7.78847 24.3392L7.78868 24.3394Z" fill="white" stroke="white"/>
</svg>
