<svg width="43" height="44" viewBox="0 0 43 44" fill="none" xmlns="http://www.w3.org/2000/svg">
<g clip-path="url(#clip0_2611_5519)">
<path fill-rule="evenodd" clip-rule="evenodd" d="M21.3408 25.7408L30.6918 35.0918C31.188 35.588 31.861 35.8668 32.5627 35.8668C33.2644 35.8668 33.9374 35.588 34.4336 35.0918C34.9298 34.5956 35.2085 33.9226 35.2085 33.2209C35.2085 32.5192 34.9298 31.8462 34.4336 31.35L25.0791 21.999L34.4318 12.648C34.6774 12.4023 34.8722 12.1107 35.005 11.7897C35.1379 11.4688 35.2062 11.1248 35.2061 10.7774C35.2061 10.43 35.1376 10.086 35.0046 9.76514C34.8715 9.44424 34.6766 9.15268 34.4309 8.9071C34.1852 8.66153 33.8936 8.46675 33.5726 8.33389C33.2517 8.20103 32.9077 8.13269 32.5603 8.13277C32.2129 8.13286 31.869 8.20136 31.548 8.33437C31.2271 8.46738 30.9356 8.66229 30.69 8.90799L21.3408 18.259L11.9898 8.90799C11.7459 8.65525 11.4542 8.45361 11.1315 8.31484C10.8089 8.17606 10.4618 8.10294 10.1106 8.09972C9.75944 8.0965 9.41111 8.16326 9.08599 8.2961C8.76087 8.42894 8.46546 8.6252 8.21699 8.87343C7.96853 9.12166 7.77199 9.41689 7.63884 9.74189C7.5057 10.0669 7.43861 10.4151 7.4415 10.7663C7.44438 11.1175 7.51718 11.4647 7.65565 11.7874C7.79412 12.1102 7.99548 12.4022 8.24799 12.6463L17.6025 21.999L8.24975 31.3518C7.99724 31.5959 7.79588 31.8878 7.65741 32.2106C7.51894 32.5334 7.44614 32.8805 7.44326 33.2317C7.44037 33.5829 7.50746 33.9312 7.64061 34.2561C7.77375 34.5811 7.97029 34.8764 8.21876 35.1246C8.46722 35.3728 8.76263 35.5691 9.08775 35.7019C9.41288 35.8348 9.7612 35.9015 10.1124 35.8983C10.4636 35.8951 10.8106 35.822 11.1333 35.6832C11.4559 35.5444 11.7477 35.3428 11.9916 35.09L21.3408 25.7408Z" fill="#232323"/>
</g>
<defs>
<clipPath id="clip0_2611_5519">
<rect width="42.3202" height="42.3202" fill="white" transform="translate(0.179688 0.839844)"/>
</clipPath>
</defs>
</svg>
