<svg width="34" height="33" viewBox="0 0 34 33" fill="none" xmlns="http://www.w3.org/2000/svg">
<path d="M17 6.70312C17.8543 6.70312 18.5469 6.01057 18.5469 5.15625C18.5469 4.30193 17.8543 3.60938 17 3.60938C16.1457 3.60938 15.4531 4.30193 15.4531 5.15625C15.4531 6.01057 16.1457 6.70312 17 6.70312Z" stroke="black" stroke-width="3.09375" stroke-linecap="round" stroke-linejoin="round"/>
<path d="M17 18.0469C17.8543 18.0469 18.5469 17.3543 18.5469 16.5C18.5469 15.6457 17.8543 14.9531 17 14.9531C16.1457 14.9531 15.4531 15.6457 15.4531 16.5C15.4531 17.3543 16.1457 18.0469 17 18.0469Z" stroke="black" stroke-width="3.09375" stroke-linecap="round" stroke-linejoin="round"/>
<path d="M17 29.3906C17.8543 29.3906 18.5469 28.6981 18.5469 27.8438C18.5469 26.9894 17.8543 26.2969 17 26.2969C16.1457 26.2969 15.4531 26.9894 15.4531 27.8438C15.4531 28.6981 16.1457 29.3906 17 29.3906Z" stroke="black" stroke-width="3.09375" stroke-linecap="round" stroke-linejoin="round"/>
</svg>
