<svg width="20" height="19" viewBox="0 0 20 19" fill="none" xmlns="http://www.w3.org/2000/svg">
<path d="M9.22285 16.6068L9.22141 16.6055C6.62673 14.2548 4.55374 12.3717 3.11773 10.6164C1.69269 8.87454 1 7.38127 1 5.82704C1 3.29417 2.97024 1.33203 5.5 1.33203C6.93803 1.33203 8.33453 2.00603 9.24146 3.06177L10 3.94477L10.7585 3.06177C11.6655 2.00603 13.062 1.33203 14.5 1.33203C17.0298 1.33203 19 3.29417 19 5.82704C19 7.38127 18.3073 8.87454 16.8823 10.6164C15.4463 12.3717 13.3733 14.2548 10.7786 16.6055L10.7772 16.6068L10 17.3136L9.22285 16.6068Z" stroke="black" stroke-width="2"/>
</svg>
