<svg width="60" height="60" viewBox="0 0 60 60" fill="none" xmlns="http://www.w3.org/2000/svg">
<circle cx="30" cy="30" r="30" fill="#007AFF"/>
<path fill-rule="evenodd" clip-rule="evenodd" d="M31.368 22.9638L34.2537 20.0781C35.587 18.7448 36.2537 18.0781 37.0821 18.0781C37.9106 18.0781 38.5789 18.7464 39.9155 20.083C41.2521 21.4196 41.9204 22.0879 41.9204 22.9164C41.9204 23.7448 41.2537 24.4115 39.9204 25.7448L37.0659 28.5993C34.7085 27.2361 32.7485 25.2908 31.368 22.9638ZM29.9137 24.4181L19.5218 34.81C19.0968 35.235 18.8843 35.4476 18.7445 35.7087C18.6048 35.9698 18.5458 36.2645 18.4279 36.8539L17.3959 42.0143C17.3294 42.3469 17.2961 42.5132 17.3907 42.6078C17.4853 42.7024 17.6516 42.6691 17.9842 42.6026L17.9842 42.6026L17.9842 42.6026L23.1445 41.5705C23.734 41.4527 24.0287 41.3937 24.2898 41.254C24.5509 41.1142 24.7634 40.9017 25.1885 40.4767L35.6078 30.0573C33.3013 28.6299 31.3556 26.6978 29.9137 24.4181Z" fill="white"/>
</svg>
