<svg width="25" height="25" viewBox="0 0 25 25" fill="none" xmlns="http://www.w3.org/2000/svg">
<path d="M1 4.2C1 3.0799 1 2.51984 1.21799 2.09202C1.40973 1.71569 1.71569 1.40973 2.09202 1.21799C2.51984 1 3.0799 1 4.2 1H20.8C21.9201 1 22.4802 1 22.908 1.21799C23.2843 1.40973 23.5903 1.71569 23.782 2.09202C24 2.51984 24 3.0799 24 4.2V20.8C24 21.9201 24 22.4802 23.782 22.908C23.5903 23.2843 23.2843 23.5903 22.908 23.782C22.4802 24 21.9201 24 20.8 24H4.2C3.0799 24 2.51984 24 2.09202 23.782C1.71569 23.5903 1.40973 23.2843 1.21799 22.908C1 22.4802 1 21.9201 1 20.8V4.2Z" stroke="#33363F" stroke-width="2" stroke-linecap="round"/>
<path d="M21.447 23.9965L16.3359 5.46875" stroke="#33363F" stroke-width="2"/>
<path d="M24 4.83594L1 7.39149" stroke="#33363F" stroke-width="2"/>
<path d="M13.776 15.1648C13.776 17.6057 11.3784 19.3121 10.3755 19.9191C10.1068 20.0817 9.77858 20.0817 9.50989 19.9191C8.50706 19.3121 6.10938 17.6057 6.10938 15.1648C6.10938 12.7972 7.96676 11.2188 9.94271 11.2188C11.9872 11.2188 13.776 12.7972 13.776 15.1648Z" stroke="#33363F" stroke-width="2"/>
</svg>
