<svg width="65" height="65" viewBox="0 0 65 65" fill="none" xmlns="http://www.w3.org/2000/svg">
<path fill-rule="evenodd" clip-rule="evenodd" d="M12.9988 0H51.9988V19.5023H65V65.0023H0V19.5023H12.9988V0ZM32.5 6.5L19.5 19.5V58.5H26V44.25C26 43.1454 26.8954 42.25 28 42.25H37C38.1046 42.25 39 43.1454 39 44.25V58.5H45.5V19.5L32.5 6.5ZM6.5 42.25H13V58.5H6.5V42.25ZM12.9995 26.0023H6.5V35.7516H12.9995V26.0023ZM51.9988 42.25H58.4988V58.5H51.9988V42.25ZM58.4984 26.0023H51.9988V35.7516H58.4984V26.0023Z" fill="#007AFF"/>
</svg>
