<svg width="65" height="65" viewBox="0 0 65 65" fill="none" xmlns="http://www.w3.org/2000/svg">
<path fill-rule="evenodd" clip-rule="evenodd" d="M32.5 65C50.4493 65 65 50.4493 65 32.5C65 14.5507 50.4493 0 32.5 0C14.5507 0 0 14.5507 0 32.5C0 50.4493 14.5507 65 32.5 65ZM32.5 50.226C42.2905 50.226 50.2273 42.2892 50.2273 32.4987C50.2273 22.7082 42.2905 14.7715 32.5 14.7715C22.7095 14.7715 14.7727 22.7082 14.7727 32.4987C14.7727 42.2892 22.7095 50.226 32.5 50.226ZM39.1057 32.502C40.5095 30.9338 41.3631 28.8628 41.3631 26.5924C41.3631 21.6972 37.3948 17.7288 32.4995 17.7288C27.6043 17.7288 23.6359 21.6972 23.6359 26.5924C23.6359 28.8628 24.4895 30.9338 25.8933 32.502C24.4895 34.0702 23.6359 36.1412 23.6359 38.4116C23.6359 43.3069 27.6043 47.2752 32.4995 47.2752C37.3948 47.2752 41.3631 43.3069 41.3631 38.4116C41.3631 36.1412 40.5095 34.0702 39.1057 32.502ZM35.4541 38.4069C35.4541 40.0385 34.1314 41.3612 32.4998 41.3612C30.8682 41.3612 29.5455 40.0385 29.5455 38.4069C29.5455 36.7752 30.8682 35.4525 32.4998 35.4525C34.1314 35.4525 35.4541 36.7752 35.4541 38.4069ZM32.4998 29.5445C34.1314 29.5445 35.4541 28.2218 35.4541 26.5902C35.4541 24.9586 34.1314 23.6359 32.4998 23.6359C30.8682 23.6359 29.5455 24.9586 29.5455 26.5902C29.5455 28.2218 30.8682 29.5445 32.4998 29.5445Z" fill="#007AFF"/>
</svg>
