<svg width="52" height="51" viewBox="0 0 52 51" fill="none" xmlns="http://www.w3.org/2000/svg">
<path d="M21.7487 4.25C19.0894 4.25142 16.4676 4.8767 14.0938 6.07556C11.7201 7.27443 9.66075 9.01346 8.08127 11.1529C6.50178 13.2923 5.44623 15.7724 4.99945 18.3939C4.55268 21.0154 4.72713 23.7051 5.5088 26.247C6.29047 28.7888 7.65755 31.1118 9.50016 33.0292C11.3428 34.9467 13.6095 36.4051 16.1182 37.2873C18.6269 38.1695 21.3076 38.4508 23.9448 38.1087C26.582 37.7666 29.1022 36.8106 31.3027 35.3175L41.8087 45.815C42.1005 46.1282 42.4524 46.3794 42.8434 46.5536C43.2344 46.7278 43.6565 46.8215 44.0845 46.829C44.5125 46.8366 44.9376 46.7578 45.3345 46.5975C45.7314 46.4372 46.092 46.1986 46.3946 45.8959C46.6973 45.5932 46.9359 45.2327 47.0962 44.8358C47.2566 44.4389 47.3353 44.0138 47.3277 43.5858C47.3202 43.1578 47.2265 42.7357 47.0523 42.3447C46.8781 41.9537 46.6269 41.6018 46.3137 41.31L35.8162 30.804C37.5529 28.248 38.5601 25.2669 38.7294 22.1813C38.8987 19.0958 38.2237 16.0224 36.7771 13.2917C35.3304 10.561 33.1668 8.2763 30.5189 6.6832C27.871 5.09009 24.8389 4.24888 21.7487 4.25ZM11.1237 21.25C11.1237 18.4321 12.2431 15.7296 14.2357 13.737C16.2283 11.7444 18.9308 10.625 21.7487 10.625C24.5667 10.625 27.2692 11.7444 29.2617 13.737C31.2543 15.7296 32.3737 18.4321 32.3737 21.25C32.3737 24.0679 31.2543 26.7704 29.2617 28.763C27.2692 30.7556 24.5667 31.875 21.7487 31.875C18.9308 31.875 16.2283 30.7556 14.2357 28.763C12.2431 26.7704 11.1237 24.0679 11.1237 21.25Z" fill="#3F3E3E"/>
</svg>
