<svg width="48" height="47" viewBox="0 0 48 47" fill="none" xmlns="http://www.w3.org/2000/svg">
<path d="M30.8388 14.6882H30.8545M36.7138 14.6882H36.7295M43.5837 14.2632C43.5837 19.4371 39.199 23.6319 33.792 23.6319C33.1549 23.6319 32.5237 23.5731 31.8983 23.4556C31.4479 23.3714 31.2227 23.3303 31.066 23.3538C30.9093 23.3773 30.6861 23.4948 30.2435 23.7317C28.9763 24.4071 27.518 24.6342 26.1055 24.376C26.6455 23.7089 27.0115 22.9183 27.1709 22.075C27.2688 21.556 27.026 21.0527 26.6617 20.6846C24.9622 18.979 24.0056 16.6709 24.0003 14.2632C24.0003 9.09123 28.385 4.89648 33.792 4.89648C39.199 4.89648 43.5837 9.09123 43.5837 14.2632ZM15.1917 42.1048H9.73975C9.10721 42.1048 8.47075 42.0147 7.88912 41.766C5.99737 40.9533 5.03583 39.8782 4.58933 39.2065C4.46815 39.0204 4.40862 38.8009 4.41916 38.5791C4.42971 38.3574 4.5098 38.1445 4.64808 37.9708C6.84142 35.0568 11.9331 33.2982 15.2015 33.2982C18.468 33.2982 23.5519 35.0568 25.7452 37.9708C26.0213 38.337 26.0585 38.8246 25.804 39.2065C25.3555 39.8782 24.394 40.9533 22.5022 41.766C21.9145 42.0025 21.285 42.1178 20.6516 42.1048H15.1917ZM20.6438 23.0874C20.6427 23.8014 20.5011 24.5081 20.2269 25.1672C19.9528 25.8264 19.5515 26.4251 19.0459 26.9292C18.5404 27.4333 17.9405 27.8329 17.2806 28.1051C16.6206 28.3774 15.9135 28.517 15.1996 28.5159C13.7585 28.517 12.3759 27.9458 11.3557 26.9278C10.3356 25.9099 9.76141 24.5286 9.75933 23.0874C9.7601 22.3735 9.90148 21.6668 10.1754 21.0075C10.4493 20.3482 10.8504 19.7494 11.3558 19.2451C11.8611 18.7408 12.4608 18.341 13.1207 18.0686C13.7806 17.7961 14.4876 17.6562 15.2015 17.657C15.9155 17.6562 16.6225 17.7961 17.2824 18.0686C17.9422 18.341 18.542 18.7408 19.0473 19.2451C19.5527 19.7494 19.9538 20.3482 20.2277 21.0075C20.5016 21.6668 20.643 22.3735 20.6438 23.0874Z" stroke="#232323" stroke-width="2.9375" stroke-linecap="round" stroke-linejoin="round"/>
</svg>
