<svg width="65" height="66" viewBox="0 0 65 66" fill="none" xmlns="http://www.w3.org/2000/svg">
<path fill-rule="evenodd" clip-rule="evenodd" d="M11.7008 39.1917C14.8802 39.1917 17.9326 38.6482 20.7703 37.649C23.3353 29.7614 29.5687 23.5287 37.4569 20.9648C38.4569 18.1261 39.0008 15.0724 39.0008 11.8916C39.0008 8.41605 38.3514 5.09218 37.1672 2.03476C34.107 0.848136 30.7798 0.197266 27.3005 0.197266C12.2231 0.197266 0.000423431 12.4199 0.000423431 27.4973C0.000423431 30.9729 0.649899 34.2967 1.8341 37.3542C4.89423 38.5408 8.2215 39.1917 11.7008 39.1917ZM10.3084 24.2932L24.0969 10.5047L28.693 15.1009L14.9045 28.8894L10.3084 24.2932ZM0 55.4464C0 60.8312 4.3652 65.1964 9.74996 65.1964C15.1347 65.1964 19.4999 60.8312 19.4999 55.4464C19.4999 50.0617 15.1347 45.6965 9.74996 45.6965C4.3652 45.6965 0 50.0617 0 55.4464ZM64.9458 44.2335C63.9087 44.0477 62.8408 43.9507 61.7503 43.9507C51.8092 43.9507 43.7504 52.0095 43.7504 61.9506C43.7504 63.0407 43.8473 64.1081 44.033 65.1447C44.5173 65.1807 45.0066 65.1991 45.5001 65.1991C56.2696 65.1991 65 56.4687 65 45.6992C65 45.2061 64.9817 44.7173 64.9458 44.2335ZM42.4823 64.967C34.1289 63.6692 27.5293 57.0692 26.2321 48.7155C27.2156 48.8684 28.2235 48.9477 29.2499 48.9477C40.0194 48.9477 48.7498 40.2172 48.7498 29.4477C48.7498 28.4219 48.6706 27.4145 48.5179 26.4314C56.8713 27.7292 63.4709 34.3292 64.7681 42.6828C63.7846 42.53 62.7767 42.4507 61.7503 42.4507C50.9808 42.4507 42.2504 51.1811 42.2504 61.9506C42.2504 62.9765 42.3296 63.9839 42.4823 64.967ZM45.5001 26.1993C45.9936 26.1993 46.4829 26.2176 46.9672 26.2536C47.1529 27.2903 47.2498 28.3577 47.2498 29.4477C47.2498 39.3888 39.1909 47.4477 29.2499 47.4477C28.1594 47.4477 27.0915 47.3507 26.0544 47.1649C26.0185 46.681 26.0002 46.1922 26.0002 45.6992C26.0002 34.9297 34.7306 26.1993 45.5001 26.1993Z" fill="#007AFF"/>
</svg>
