<svg width="70" height="52" viewBox="0 0 70 52" fill="none" xmlns="http://www.w3.org/2000/svg">
<path fill-rule="evenodd" clip-rule="evenodd" d="M20.417 0.0605469H18.417V4.06055H20.417H32.0837H34.0837V0.0605469H32.0837H20.417ZM43.7503 0.0605469H41.7503V4.06055H43.7503H47.8894L49.1672 11.7272H26.2503H25.0143L24.4615 12.8328L19.2561 23.2435C17.7892 22.7477 16.2176 22.4788 14.5833 22.4788C6.52917 22.4788 0 29.008 0 37.0622C0 45.1163 6.52917 51.6455 14.5833 51.6455C21.9595 51.6455 28.0567 46.1692 29.0308 39.0605H33.542H34.5256L35.126 38.2815L50.3099 18.5835L51.069 23.1379C45.1383 24.9878 40.8334 30.5223 40.8334 37.0622C40.8334 45.1163 47.3626 51.6455 55.4167 51.6455C63.4709 51.6455 70.0001 45.1163 70.0001 37.0622C70.0001 29.008 63.4709 22.4788 55.4167 22.4788C55.2825 22.4788 55.1486 22.4806 55.0152 22.4843L53.5009 13.3984L51.5564 1.73175L51.2779 0.0605469H49.5837H43.7503ZM52.0435 28.9851L53.4442 37.3893L53.773 39.3621L57.7186 38.7045L57.3898 36.7317L55.9895 28.33C60.5547 28.6253 64.166 32.4216 64.166 37.0615C64.166 41.8939 60.2485 45.8115 55.416 45.8115C50.5836 45.8115 46.6661 41.8939 46.6661 37.0615C46.6661 33.4243 48.8853 30.3054 52.0435 28.9851ZM29.0304 35.0605H32.5584L47.4612 15.7272H27.4864L22.8327 25.0346C26.1377 27.3058 28.4598 30.904 29.0304 35.0605ZM20.1815 30.337C21.6167 31.5332 22.6629 33.1802 23.1028 35.0605H17.8198L20.1815 30.337ZM16.6047 28.5463L12.7948 36.1661L11.3476 39.0605H14.5837H23.1032C22.199 42.9297 18.7273 45.8115 14.5826 45.8115C9.75014 45.8115 5.83263 41.8939 5.83263 37.0615C5.83263 32.229 9.75014 28.3115 14.5826 28.3115C15.2786 28.3115 15.9557 28.3927 16.6047 28.5463Z" fill="#007AFF"/>
</svg>
